<svg width="20" height="20" viewBox="0 0 20 20" fill="none" xmlns="http://www.w3.org/2000/svg">
<g clip-path="url(#clip0_437_7861)">
<mask id="mask0_437_7861" style="mask-type:alpha" maskUnits="userSpaceOnUse" x="0" y="0" width="20" height="20">
<rect width="20" height="20" fill="#D9D9D9"/>
</mask>
<g mask="url(#mask0_437_7861)">
<path d="M10 17C9.16667 17 8.40972 16.7743 7.72917 16.3229C7.04861 15.8715 6.56944 15.2639 6.29167 14.5H4.75C4.5375 14.5 4.35938 14.4285 4.21563 14.2856C4.07188 14.1427 4 13.9656 4 13.7544C4 13.5431 4.07188 13.3646 4.21563 13.2188C4.35938 13.0729 4.5375 13 4.75 13H6V11.75H4.75C4.5375 11.75 4.35938 11.6785 4.21563 11.5356C4.07188 11.3927 4 11.2156 4 11.0044C4 10.7931 4.07188 10.6146 4.21563 10.4688C4.35938 10.3229 4.5375 10.25 4.75 10.25H6V9H4.75C4.5375 9 4.35938 8.92854 4.21563 8.78563C4.07188 8.64271 4 8.46563 4 8.25438C4 8.04313 4.07188 7.86458 4.21563 7.71875C4.35938 7.57292 4.5375 7.5 4.75 7.5H6.29167C6.40278 7.13889 6.58194 6.81188 6.82917 6.51896C7.07639 6.22604 7.3625 5.96972 7.6875 5.75L6.52083 4.58333C6.36806 4.43056 6.29514 4.25347 6.30208 4.05208C6.30903 3.8507 6.38889 3.67361 6.54167 3.52083C6.69444 3.36806 6.86806 3.29167 7.0625 3.29167C7.25694 3.29167 7.43056 3.36806 7.58333 3.52083L9.16667 5.08333C9.4425 5.01389 9.72326 4.97917 10.009 4.97917C10.2947 4.97917 10.5764 5.01389 10.8542 5.08333L12.4167 3.52083C12.5694 3.36806 12.7477 3.29167 12.9515 3.29167C13.1551 3.29167 13.331 3.36806 13.4792 3.52083C13.6319 3.67361 13.7083 3.8507 13.7083 4.05208C13.7083 4.25347 13.6319 4.43056 13.4792 4.58333L12.3125 5.75C12.6319 5.97222 12.9097 6.22917 13.1458 6.52083C13.3819 6.8125 13.5694 7.13889 13.7083 7.5H15.25C15.4625 7.5 15.6406 7.57146 15.7844 7.71438C15.9281 7.85729 16 8.03438 16 8.24563C16 8.45688 15.9281 8.63542 15.7844 8.78125C15.6406 8.92708 15.4625 9 15.25 9H14V10.25H15.25C15.4625 10.25 15.6406 10.3215 15.7844 10.4644C15.9281 10.6073 16 10.7844 16 10.9956C16 11.2069 15.9281 11.3854 15.7844 11.5313C15.6406 11.6771 15.4625 11.75 15.25 11.75H14V13H15.25C15.4625 13 15.6406 13.0715 15.7844 13.2144C15.9281 13.3573 16 13.5344 16 13.7456C16 13.9569 15.9281 14.1354 15.7844 14.2813C15.6406 14.4271 15.4625 14.5 15.25 14.5H13.7083C13.4306 15.2639 12.9514 15.8715 12.2708 16.3229C11.5903 16.7743 10.8333 17 10 17ZM10 15.5C10.676 15.5 11.2547 15.2569 11.7363 14.7708C12.2176 14.2847 12.4722 13.6944 12.5 13V9C12.5278 8.30556 12.2951 7.71528 11.8021 7.22917C11.309 6.74306 10.7118 6.5 10.0104 6.5C9.30903 6.5 8.71875 6.74306 8.23958 7.22917C7.76042 7.71528 7.51389 8.30556 7.5 9V13C7.48611 13.6944 7.72222 14.2847 8.20833 14.7708C8.69444 15.2569 9.29167 15.5 10 15.5ZM9.24813 13H10.7446C10.9565 13 11.1354 12.9285 11.2812 12.7856C11.4271 12.6427 11.5 12.4656 11.5 12.2544C11.5 12.0431 11.4283 11.8646 11.285 11.7188C11.1415 11.5729 10.9638 11.5 10.7519 11.5H9.25542C9.04347 11.5 8.86458 11.5715 8.71875 11.7144C8.57292 11.8573 8.5 12.0344 8.5 12.2456C8.5 12.4569 8.57167 12.6354 8.715 12.7813C8.85847 12.9271 9.03618 13 9.24813 13ZM9.24813 10.5H10.7446C10.9565 10.5 11.1354 10.4285 11.2812 10.2856C11.4271 10.1427 11.5 9.96563 11.5 9.75438C11.5 9.54313 11.4283 9.36458 11.285 9.21875C11.1415 9.07292 10.9638 9 10.7519 9H9.25542C9.04347 9 8.86458 9.07146 8.71875 9.21438C8.57292 9.35729 8.5 9.53438 8.5 9.74563C8.5 9.95688 8.57167 10.1354 8.715 10.2813C8.85847 10.4271 9.03618 10.5 9.24813 10.5Z" fill="#BAC8DE"/>
</g>
</g>
<defs>
<clipPath id="clip0_437_7861">
<rect width="20" height="20" fill="white"/>
</clipPath>
</defs>
</svg>
